<?xml version="1.0" encoding="utf-8"?>
<!-- Generator: Adobe Illustrator 17.0.0, SVG Export Plug-In . SVG Version: 6.00 Build 0)  -->
<!DOCTYPE svg PUBLIC "-//W3C//DTD SVG 1.1//EN" "http://www.w3.org/Graphics/SVG/1.1/DTD/svg11.dtd">
<svg version="1.1" xmlns="http://www.w3.org/2000/svg" xmlns:xlink="http://www.w3.org/1999/xlink" x="0px" y="0px" width="1000px"
	 height="1000px" viewBox="0 0 1000 1000" enable-background="new 0 0 1000 1000" xml:space="preserve">
<g id="Layer_1">
	<g display="none">
		<path display="inline" d="M511.67,109.764c0,0-42.142-9.084-31.564,38.355c20.713,67.627-31.667,71.664-43.381,71.664
			c-11.714,0-31.797,1.346-41.889-21.196c-6.393-14.468,11.607-34.486-7.066-49.963c26.749,0,26.969,34.822,32.663,34.822
			c5.691,0,5.691-2.355,6.701-9.757c1.515-31.122-48.449-53.328-36.337-108.842c25.218-87.555,104.974-49.962,118.6-20.691
			C523.022,73.426,511.67,109.764,511.67,109.764z"/>
		<path display="inline" fill="#474747" d="M500.125,108.046c0,0-43.465-2.275-25.462,55.743
			c12.769,46.924-39.326,46.793-48.777,46.793c-9.448,0-18.138-2.166-22.771-14.344c-5.156-11.672,0.729-23.645-0.189-34.797
			c5.673,0.634,4.822,30.85,20.839,30.85c7.634,0,12.688-9.134,8.162-35.429c-5.35-35.476-39.086-43.023-29.313-87.809
			c20.344-70.635,84.686-40.307,95.681-16.692C509.285,75.975,500.125,108.046,500.125,108.046z"/>
		<path display="inline" opacity="0.6" fill="#262626" d="M500.125,108.046c0,0,9.16-32.071-1.83-55.685
			c-1.547-3.325-4.182-6.777-7.575-10.068c-11.854-0.824-25.28,3.116-37.273,18.471c-30.311,38.807,21.585,84.274,8.038,129.513
			c-2.721,10.396-16.682,16.889-24.911,19.874c17.879-1.615,48.161-9.344,38.088-46.361
			C456.66,105.771,500.125,108.046,500.125,108.046z"/>
	</g>
</g>
<g id="Layer_2">
	<g display="none">
		<polygon display="inline" fill="#B02512" points="759.828,582.087 770.139,557.193 745.193,546.861 734.861,571.807 
			759.673,582.083 746.019,605.289 769.289,618.981 782.981,595.711 		"/>
		<polygon display="inline" fill="#B02512" points="714.446,539.001 688.001,533.554 682.555,559.999 708.486,565.34 
			702.227,591.486 728.485,597.773 734.772,571.514 709.019,565.349 		"/>
	</g>
	<g>
		<path d="M218.097,394.858c13.218,9.919,98.461,7.957,75.259-73.668c3.014,1.517,50.637,31.172,116.315-41.978
			c13.684,15.339,50.812,11.711,50.812,11.711s-78.765,40.373-47.902,85.932c39.192,51.435,112.186-7.352,175.384,0
			c65.157,9.795,120.552,75.396,120.552,75.396s29.358,50.993,5.462,152.236c-110.337-35.597-160.435,53.312-160.435,53.312
			s-48.347-90.854-94.901-70.776c-73.986,32.816-28.425,107.772-24.507,138.889c2.032,15.105,8.818,77.158-2.938,77.158
			c-81.325,0-158.729-63.933-158.729-63.933s-33.312-101.652-85.565-146.996C164.796,494.597,204.93,422.107,218.097,394.858z"/>
		<path d="M672.285,156c44.777,0,177.046,0,217.69,0c31.689,0,22.045,43.92,17.912,52.875
			c-35.823,84.046-139.157,72.708-132.269,72.249c-5.052,16.994,128.823,301.694-66.823,489.763
			c-10.333,64.757-258.336,386.45-501.745,131.561c-39.738-48.224,13.317-153.409,106.318-65.458
			c26.523,21.011,25.489,63.372,101.957,63.372c96.444,0,163.957-70.959,162.579-79.914c-35.822-12.4-69.578,21.356-106.09,21.356
			c-59.934,0-46.845-130.893-46.845-116.426c-97.823-9.646-137.09,20.667-137.09,20.667s0.689,19.978-20.667,34.444
			c-55.112,32.378-127.446-64.757-154.313-101.956c-38.119-52.126,5.511-147.425,85.423-86.113
			c39.875-20.012,59.245-175.668,59.245-175.668s-28.245,4.822-41.333-19.978c-13.089-24.8,9.644-57.178,9.644-57.178
			s-50.29-26.867-13.089-65.445c15.156-14.467,40.645-6.03,64.756-24.63C302.576,186.601,489.038,54,672.285,156z"/>
		<path d="M533.127,288.962c0,0-9.794,8.538,3.887,14.177c-1.246,0.75,13.11,73.914,13.11,73.914s-7.457,6.197,2.293,10.702
			c-1.914,0.287,106.464,37.286,106.464,37.286l21.573,21.394l25.357,41.734l32.607-8.727l-52.816-115.274l-62.919-46.386
			l-15.414-34.904L533.127,288.962z"/>
		<path fill="#FA851D" d="M672.285,172.194c4.477,0,223.202,0,223.202,0s8.955,79.912-92.313,79.912
			c-26.904,0-53.39-1.033-71.696-17.812C697.085,200.439,672.285,201.127,672.285,172.194z"/>
		<path fill="#FA851D" d="M628.776,803.223c0,0,27.884-7.346,51.313-21.356c4.219,2.527-111.764,220.447-321.939,187.38
			c-82.008-14.007-121.606-68.2-134.259-84.734c-14.292-20.206,11.014-75.776,61.623-39.953
			c30.931,16.534,59.28,81.287,123.948,81.287C547.17,925.847,628.776,803.223,628.776,803.223z"/>
		<path fill="#FA851D" d="M276.858,272.772c-1.73,4.69-6.544,13.778-5.167,36.167c4.823,2.756-47.878,5.511-48.223-5.855
			C223.468,288.617,252.402,296.195,276.858,272.772z"/>
		<path fill="#B02512" d="M232.309,667.741c48.223,70.269,23.883,89.56,21.126,92.773c-2.755,3.212-33.527,17.91-93.229-58.328
			c-39.956-48.683-42.504-82.663-25.261-94.61C155.359,594.723,178.574,589.207,232.309,667.741z"/>
		<path fill="#B02512" d="M488.12,616.766c-50.526-38.273-66.594,5.048-63.839,26.634c0,17.45,18.372,38.581,22.505,71.647
			c4.133,33.067-5.051,59.705,0.46,76.239c0.918,10.562,23.883,58.784,67.052,7.806C521.648,790.368,575.382,692.545,488.12,616.766
			z"/>
		<path fill="#FCCF33" d="M542.771,655.455c0,0,83.356-100.924,168.092-22.561c3.444,6.372,18.6,2.066,10.333-13.004
			c-44.09-53.647-129.513-19.977-134.335-16.489c86.112-73.67,92.773-156.105,92.773-156.105s18.14,10.791,25.718,29.38
			c6.889,5.522,21.356,3.444,15.845-11.017c-61.313-85.418-127.639-88.865-171.958-88.865c-40.645,0-44.813,21.114-90.052,21.114
			c-54.936-0.157-33.416-44.089-30.661-49.601c48.974-72.057,176.247-36.956,184.513-31.444c8.267,5.511,11.022-6.2,2.067-12.401
			c-28.935-17.911-81.979-15.499-81.979-15.499s7.349-16.649-8.955-12.056c-69.579,45.01-124.69-10.105-124.69,0
			c-90.017,85.423-100.121,38.58-106.55,28.476c-6.429-10.105-23.88-101.039,169.929-159.826
			c135.941-23.881,187.38,22.964,187.38,22.964s2.066,14.337,13.777,31.918c11.711,17.58,53.276,36.511,65.217,54.422
			c43.648,64.883,55.572,148.894,55.34,231.467c-0.441,157.653-72.624,310.071-245.477,314.14
			C574.461,714.354,542.771,655.455,542.771,655.455z"/>
		<path d="M533.127,288.962c0,0,106.091-19.404,242.492-7.923c22.252,0.229,59.245-3.214,50.979,16.075
			c-8.268,19.289-39.612,15.959-34.913,30.585c63.386,218.335-11.91,345.547-11.91,345.547s-8.749-33.98-56.428-47.804
			c-5.595-11.436-22.842-26.455-28.455-24.916c21.021-96.284-12.502-150.019-12.502-150.019s20.667,14.675,22.962,26.167
			c9.645,8.278,25.26,0.469,10.105-16.982c-58.328-88.065-165.333-82.641-165.333-82.641s24.797-40.443-13.11-73.914
			c29.641-3.27,69.137,11.656,76.025,13.723c6.889,2.066,7.939-6.79-0.509-13.901C590.65,289.65,533.127,288.962,533.127,288.962z"
			/>
		<path fill="#FFFFFF" d="M552.417,291.717c0,0,252.135-14.811,252.135,5.397c-1.643,16.076-38.578,0.919-34.912,22.318
			c62.929,215.581-3.643,306.97-3.643,306.97s-28.955-23.648-71.104-25.875c21.021-96.284-15.258-155.529-15.258-155.529
			s23.423,20.186,25.718,31.678c5.855,5.408,25.26,0.469,10.105-16.982c-63.15-90.475-154.311-82.641-154.311-82.641
			s30.309-40.443-7.6-73.914c29.643-3.27,52.604,11.656,59.493,13.723c6.889,2.066,7.939-6.79-0.509-13.901
			C590.65,289.65,552.417,291.717,552.417,291.717z"/>
		<g>
			<circle cx="508.787" cy="208.934" r="18.372"/>
			<circle cx="340.697" cy="247.512" r="15.156"/>
			<path d="M433.119,242.859c2.244,8.851-7.398,18.934-21.533,22.518c-14.136,3.585-27.419-0.689-29.663-9.537
				c-2.244-8.851,7.397-18.934,21.537-22.519C417.592,229.738,430.875,234.009,433.119,242.859z"/>
		</g>
		<path fill="#FCCF33" d="M275.48,339.94c0,0-20.667-7.578-35.822,16.189c-15.156,23.767,2.755,36.511,2.755,36.511
			s14.122,11.711,35.823-11.022C305.792,353.373,275.48,339.94,275.48,339.94z"/>
		<g>
			<path d="M679.634,444.768c0,0-35.19-50.166-102.877-57.639c-5.412-0.629-10.891-0.665-16.404-0.256
				c0.877,0.07,1.751,0.154,2.626,0.256c67.686,7.473,100.086,57.095,100.086,57.095s38.937,59.186,19.174,151.143
				c4.255,1.399,8.479,3.098,12.653,5.159C717.291,505.614,679.634,444.768,679.634,444.768z"/>
		</g>
		<path fill="#3152AF" d="M224.041,407.796c21.587,18.372,107.635,0.751,79.912-73.94c2.826,1.42,36.366,26.791,97.939-41.783
			c12.828,14.38,55.356,14.499,55.356,14.499s-78.405,37.843-43.529,89.085c36.74,48.22,103.791-15.42,163.037-8.528
			c67.687,7.473,85.654,43.171,85.654,43.171s45.599,71.314,23.199,166.226c-75.556-26.608-154.778,39.986-154.778,39.986
			s-45.755-67.515-91.64-51.828c-69.36,30.763-10.317,100.5-6.644,129.67c1.906,14.161,8.267,72.335-2.755,72.335
			c-76.239,0-148.802-59.934-148.802-59.934S254.2,641.967,205.215,599.46C172.835,475.308,227.968,401.042,224.041,407.796z"/>
		<path fill="#FFC522" d="M391.215,493.219c-71.807,0-138.845,16.82-195.695,45.924c1.096,18.483,4.037,38.618,9.696,60.316
			c48.984,42.507,75.776,127.296,75.776,127.296s72.563,59.934,148.802,59.934c11.022,0,4.661-58.174,2.755-72.335
			c-3.673-29.17-62.716-98.907,6.644-129.67c45.884-15.687,91.64,51.828,91.64,51.828s64.646-54.319,132.836-45.216
			C595.741,530.971,498.822,493.219,391.215,493.219z"/>
		<g>
			<path fill="#FFFFFF" d="M366.417,344.415c-19.644,0-39.006,5.04-57.103,13.947c0.35,7.311-0.613,13.848-2.591,19.642
				c16.856-8.835,35.05-13.843,53.518-13.843c15.716,0,30.748,2.748,44.655,7.885c-0.552-7.623,1.119-14.776,4.179-21.348
				C395.587,346.598,381.274,344.415,366.417,344.415z"/>
			<path fill="#FFFFFF" d="M413.72,395.657c-0.549-0.808-1.071-1.612-1.563-2.414c-13.348,10.431-5.932,30.495-3.488,34.537
				c22.502,31.684,32.835,44.772,27.556,81.519c-3.213,9.533-23.651,90.016-23.651,90.016s-48.57-118.495-59.934-169.697
				c4.136-0.223,19.459,0.568,24.798-6.431c5.339-6.999-1.378-9.413-5.509-9.413c-4.131,0-69.595,7.346-76.928,7.346
				c-7.332,0-11.943,12.632-1.378,12.632c8.724,0.396,14.698-0.92,14.698-0.92s11.937,63.489,15.384,70.728
				c-7.925,6.883-17.452,105.401-17.452,105.401s-37.318-75.785-47.994-166.027c2.069-4.131,18.829-8.267,18.829-8.267
				l-3.213-11.022l-24.55,6.935c4.188-6.219,8.746-12.128,13.622-17.672c-6.324,1.343-12.604,1.825-18.355,1.504
				c-22.507,31.261-36.622,70.111-36.622,110.496c0,94.354,63.583,161.201,145.128,161.201c21.316,0,42.424-6.057,62-16.622
				c-11.889-29.41-19.138-62.978,19.763-82.729c11.695-34.45,31.157-105.272,34.66-117.871c1.811-6.515,3.932-22.462,2.368-38.576
				c11.641,21.119,18.328,46.455,18.328,74.796c0,28.148-7.938,55.634-21.21,79.721c6.997,2.191,13.724,5.673,20.008,9.814
				c15.236-27.41,24.364-58.764,24.364-90.861c0-37.556-10.391-70.44-28.008-96.446C457.182,416.028,431.785,419.368,413.72,395.657
				z M220.11,523.792c0-20.681,4.187-40.912,11.569-59.649c-0.019,1.213-1.488,110.748,65.827,191.449
				C251.527,634.928,220.11,586.161,220.11,523.792z M348.462,666.361c-9.475,0-18.667-1.047-27.502-3.009
				c0.11-21.665,1.198-129.122,11.921-140.142c-1.418,4.281,42.303,109.602,63.327,132.023
				C380.935,662.352,364.768,666.361,348.462,666.361z"/>
		</g>
		<g opacity="0.2">
			<path d="M353.199,769.428c23.032,9.722,49.571,17.262,76.594,17.262c8.428,0,6.692-33.995,4.556-56.336
				C409.293,746.618,382.068,759.818,353.199,769.428z"/>
			<path d="M662.411,430.301c0,0-14.747-29.294-67.84-40.365c1.563,13.548,2.393,27.316,2.393,41.283
				c0,75.596-23.559,145.68-63.701,203.352c13.75-10.716,84.507-61.936,152.348-38.045
				C708.01,501.615,662.411,430.301,662.411,430.301z"/>
		</g>
		<path d="M569.64,619.288c0,0,85.65,11.71,55.8,173.601c-5.971,3.443,11.022-6.198,13.778-13.088
			c28.589-145.013-59.935-168.776-59.935-168.776L569.64,619.288z"/>
		<path fill="#DC422E" d="M627.148,782.93c18.796-116.573-24.803-150.561-46.348-160.089
			c-23.315,14.841-38.029,32.614-38.029,32.614s31.689,58.899-3.674,145.013C572.047,799.69,601.317,793.499,627.148,782.93z"/>
		<path d="M446.888,134.473c0,0,58.505-19.086,69.779,28.193c11.004,69.866,63.652,55.798,74.184,50.667
			c34.149-19-10.018-41.833,0.816-66c-24.046,11.717-5.888,34-12.931,38.333c-13.226,8.137-26.685-16.488-30.835-22.7
			c-14.996-27.313,23.175-77.222-12.032-121.82C474.846-26.515,419.618,42.218,420.191,74.5
			C420.765,106.781,446.888,134.473,446.888,134.473z"/>
		<path fill="#474747" d="M456.514,127.871c0,0,59.076-25.086,68.309,34.956C533.5,216,572.5,211.25,582,209
			c33-14.5,1.305-37.758,3.779-52c-9.279,6.25,6.405,27.547-7.993,34.564c-27.641,4.834-41.37-27.131-43.095-54.06
			C532.514,103.507,556,84.5,527.09,50.104c-49.23-54.585-93.785,0.863-93.324,26.908
			C434.23,103.054,456.514,127.871,456.514,127.871z"/>
		<g opacity="0.6">
			<path fill="#B3CFE5" d="M720.077,466.396c-69.148-98.211-158.932-89.342-158.932-89.342s11.601-16.788,11.456-36.075
				C575.861,341.55,700.529,359.918,720.077,466.396z"/>
			<path fill="#B3CFE5" d="M775.385,308.175c-53.5-3.714-114.812,15.231-118.945,18.332
				c85.423-14.467,119.171,14.472,119.171,14.472S765.974,311.006,775.385,308.175z"/>
			<path fill="#B3CFE5" d="M694.892,600.526c0,0,36.181,4.294,71.104,25.875c42.69-67.393,28.137-185.334,28.414-182.823
				C785.608,562.453,694.892,600.526,694.892,600.526z"/>
		</g>
		<path fill="#B71C11" d="M553.501,749.481c-2.402,15.562-6.872,32.65-14.403,50.986c32.949-0.777,62.22-6.969,88.051-17.538
			c3.765-23.346,4.994-43.328,4.433-60.517C611.164,739.117,583.719,749.391,553.501,749.481z"/>
		<ellipse transform="matrix(0.8661 -0.4999 0.4999 0.8661 -5.0593 435.3797)" cx="810.167" cy="227.134" rx="13.5" ry="17.2"/>
		<circle cx="805.914" cy="229.75" r="11.586"/>
		<path fill="#FCCF33" d="M873.508,253.675c2.954,15.387,5.773,49.015-23.507,57.325c-36.898,0.483-43.365-33.064-45.449-41.333
			c-4.729-17.748,6.181-34.937,7.055-35.989c5.5-6.912-5.439-13.678-10.024-7.704c-9.06,4.918-39.744,95.803,52.015,103.55
			c53.356-23.948,38.879-70.784,32.022-86.723C882.252,246.277,878.23,249.984,873.508,253.675z"/>
		<path fill="#FFFFFF" d="M810.942,288.152l-13.767,11.907c3.045,5.242,7.111,10.12,12.451,14.352l13.351-11.548
			C817.49,298.672,813.65,293.367,810.942,288.152z"/>
		<g>
			<path d="M848.958,312.307c20.188-4.104,32.432-27.714,27.347-52.736c-0.457-2.247-1.091-4.461-1.868-6.626
				c-1.153,0.919-2.353,1.839-3.595,2.755c0.435,1.476,0.817,2.99,1.134,4.548c4.622,22.744-5.506,42.204-23.856,45.934
				c-18.351,3.729-35.973-9.685-40.596-32.428c-2.972-14.625,0.162-28.297,7.652-37.192c-0.032-0.112-0.051-0.178-0.051-0.178
				l-3.52-2.705c-8.018,10.118-11.58,25.16-8.411,40.752C808.387,299.972,831.33,315.889,848.958,312.307z"/>
			<path d="M895,255c-1.094-5.379-4.173-10.724-6.188-15.518c-1.156,1.243-3.984,4.148-5.315,5.453
				c1.55,3.93,2.802,8.08,3.685,12.425c6.599,32.468-9.288,63.104-35.483,68.428c-26.195,5.324-52.78-16.68-59.38-49.147
				c-3.887-19.126,0.034-37.611,9.264-50.666l-5.519-2.301c-9.773,14.316-15.687,34.866-11.485,55.539
				c7.261,35.72,39.603,61.479,68.423,55.622C881.819,328.976,902.26,290.721,895,255z"/>
		</g>
		<path d="M381.598,281.666c6.068-3.665,5.087-25.664-20.922-18.998C296,280.001,365.667,356.335,328,382.998
			C390.667,378.668,328.333,297.335,381.598,281.666z"/>
		<path fill="#474747" d="M373.5,277.834c8.333-3,4.131-15.082-14.119-10.404c-47.381,17.737,0.952,82.737-19.215,107.903
			C371.5,358.834,330.167,293.334,373.5,277.834z"/>
		<path d="M431.563,277.398c-6.981-3.36,1.715-26.305,23.283-23.704c68.559,8.271,24.155,97.056,63.418,114.911
			C456,371.25,495.15,281.879,431.563,277.398z"/>
		<path fill="#474747" d="M440.976,272.429c-8.751-2.049,0.52-14.554,14.087-12.917c52.182,6.294,30.716,85.694,47.437,101.698
			C470.5,334.75,493.657,276.723,440.976,272.429z"/>
		<path opacity="0.6" fill="#262626" d="M539.5,185.75c-9.112-28.495-19.25-101.5-57.25-101.5s-25.736,43.621-25.736,43.621
			s59.076-25.086,68.309,34.956C533.5,216,572.5,211.25,582,209c1.94-0.852,3.649-1.737,5.163-2.646
			C587.114,206.361,547.495,211.984,539.5,185.75z"/>
		<g>
			<path fill="#B02512" d="M714.446,551.001l-12.521-2.579c-0.344,10.125-1.253,19.329-2.307,27.092l8.868,1.826l-5.905,24.669
				c6.215,1.327,15.624,3.606,26.07,7.07l6.121-25.565l-25.754-6.165L714.446,551.001z"/>
			<path fill="#B02512" d="M759.828,594.087l10.311-24.893l-24.945-10.332l-10.332,24.945l24.812,10.276l-12.917,21.953
				c6.637,2.952,13.212,6.389,19.24,10.365c4.349-6.968,8.066-14.441,11.25-22.066L759.828,594.087z"/>
			
				<rect x="577.422" y="318.421" transform="matrix(-0.998 -0.0635 0.0635 -0.998 1154.8727 695.7346)" fill="#B02512" width="22.159" height="22.16"/>
			<path fill="#B02512" d="M574.854,363.262l1.409-22.115l-3.604-0.229c0.454,6.606-1.074,14.177-4.168,21.939L574.854,363.262z"/>
			<path fill="#B02512" d="M578.736,304.404c-9.987-1.918-17.974-1.827-22.105-1.56l-0.192,3.027
				c3.567,3.689,6.662,7.58,9.161,11.611l12.254,0.78L578.736,304.404z"/>
			<path fill="#B02512" d="M574.297,377.09c5.844,0.326,13.363,1.097,22.027,2.782l0.939-14.725l-22.116-1.409L574.297,377.09z"/>
		</g>
	</g>
</g>
</svg>
