<?xml version="1.0" encoding="utf-8"?>
<!-- Generator: Adobe Illustrator 17.0.0, SVG Export Plug-In . SVG Version: 6.00 Build 0)  -->
<!DOCTYPE svg PUBLIC "-//W3C//DTD SVG 1.1//EN" "http://www.w3.org/Graphics/SVG/1.1/DTD/svg11.dtd">
<svg version="1.1" id="Layer_1" xmlns="http://www.w3.org/2000/svg" xmlns:xlink="http://www.w3.org/1999/xlink" x="0px" y="0px"
	 width="566.929px" height="651.969px" viewBox="0 0 566.929 651.969" enable-background="new 0 0 566.929 651.969"
	 xml:space="preserve">
<g>
	<path fill="#010101" d="M82.856,252.526c9.211,6.554,68.607,5.258,52.44-48.673c2.1,1.002,35.283,20.595,81.048-27.736
		c9.534,10.134,35.405,7.737,35.405,7.737s-54.883,26.676-33.378,56.777c27.309,33.985,78.17-4.857,122.207,0
		c45.401,6.471,83.999,49.816,83.999,49.816s20.455,33.691,3.806,100.584c-76.883-23.52-111.789,35.224-111.789,35.224
		s-33.689-60.029-66.127-46.763c-51.553,21.683-19.807,71.207-17.076,91.766c1.415,9.98,6.144,50.981-2.048,50.981
		c-56.667,0-110.601-42.242-110.601-42.242s-23.212-67.163-59.622-97.122C45.717,318.426,73.681,270.529,82.856,252.526z"/>
	<path fill="#010101" d="M399.331,93.654c31.2,0,123.365,0,151.686,0c22.082,0,15.361,29.546,12.481,35.462
		c-24.961,55.531-96.964,48.302-92.165,48c-3.518,11.227,89.764,199.467-46.561,323.728c-7.201,42.787-180.008,255.4-349.613,86.99
		c-27.689-31.86,9.279-101.326,74.082-43.215c18.481,13.883,17.761,41.888,71.043,41.888c67.2,0,114.242-46.877,113.284-52.795
		c-24.961-8.192-48.481,14.117-73.923,14.117c-41.761,0-32.641-86.483-32.641-76.926c-68.163-6.372-95.524,13.658-95.524,13.658
		s0.48,13.199-14.4,22.757c-38.401,21.395-88.804-42.784-107.524-67.363c-26.561-34.441,3.839-97.405,59.521-56.896
		c27.786-13.223,41.283-116.068,41.283-116.068s-19.681,3.186-28.801-13.199c-9.121-16.387,6.72-37.779,6.72-37.779
		s-35.042-17.753-9.121-43.242c10.56-9.558,28.321-4.512,45.121-16.801C141.72,114.399,271.646,26.654,399.331,93.654z"/>
	<g>
		<path fill="#FCD036" d="M99.799,251.061c0,0,9.84,7.737,24.961-7.283c19.201-18.663-1.92-27.539-1.92-27.539
			s-14.4-5.007-24.96,10.697C87.319,242.64,99.799,251.061,99.799,251.061z"/>
		<path fill="#FCD036" d="M439.014,160.027c-8.32-11.833-37.282-24.342-45.443-35.958c-8.16-11.616-9.6-21.088-9.6-21.088
			s-35.843-30.952-130.565-15.173C118.36,126.648,130.521,186.73,135,193.408c4.48,6.676,11.521,37.626,74.244-18.815
			c0-6.676,38.402,29.739,86.884,0c11.36-3.035,6.239,7.966,6.239,7.966s36.961-1.593,57.122,10.241
			c6.241,4.097,4.319,11.834-1.441,8.193c-5.759-3.643-94.441-26.834-128.566,20.775c-1.92,3.642-16.915,32.669,21.364,32.773
			c31.523,0,34.427-13.952,62.747-13.952c30.882,0,77.097,2.278,119.819,58.715c3.842,9.555-6.24,10.927-11.041,7.279
			c-5.279-12.282-17.919-19.413-17.919-19.413s-0.303,3.528-1.737,9.58c7.576,19.474,15.123,51.092,6.083,88.258
			c9.034,2.998,17.58,8.082,24.614,16.2c5.761,9.955-4.801,12.801-7.198,8.591c-30.575-26.811-60.889-21.857-83.018-10.848
			c16.104,8.477,47.746,34.691,33.412,106.298c70.228-32.331,100.728-111.26,100.965-192.289
			C477.735,258.404,469.428,202.897,439.014,160.027z"/>
		<path fill="#FCD036" d="M393.327,382.317c-47.331-39.858-114.864-64.802-189.844-64.802c-50.035,0-96.746,11.112-136.359,30.342
			c0.764,12.213,2.813,25.517,6.756,39.854c34.132,28.085,52.8,84.107,52.8,84.107s50.562,39.6,103.685,39.6
			c7.68,0,3.248-38.436,1.919-47.793c-2.56-19.274-43.7-65.35,4.63-85.675c31.971-10.366,63.854,34.242,63.854,34.242
			S345.813,376.302,393.327,382.317z"/>
	</g>
	<g>
		<path fill="#F68522" d="M554.857,105.654c0,0-152.406,0-155.526,0c0,18,17.281,18.539,41.247,40.908
			c12.755,11.085,31.209,11.83,49.957,11.83C561.097,158.392,554.857,105.654,554.857,105.654z"/>
		<path fill="#F68522" d="M369.016,522.342c0,0-56.864,81.02-152.817,81.02c-45.06,0-64.813-42.783-86.366-53.707
			c-35.264-23.67-52.898,13.046-42.938,26.398c8.816,10.923,36.408,46.729,93.55,55.985
			c146.449,21.848,227.265-122.136,224.325-123.806C388.444,517.488,369.016,522.342,369.016,522.342z"/>
		<path fill="#F68522" d="M120.2,195.758c-0.96-14.793,2.395-20.797,3.601-23.896c-17.041,15.476-37.202,10.469-37.202,20.027
			C86.839,199.399,123.561,197.579,120.2,195.758z"/>
	</g>
	<path fill="#010101" d="M302.367,182.559c0,0,73.923-12.821,168.966-5.235c15.506,0.152,41.283-2.124,35.522,10.621
		c-5.763,12.745-27.603,10.544-24.326,20.208c44.166,144.258-8.3,228.309-8.3,228.309s-6.096-22.451-39.317-31.585
		c-3.901-7.556-15.917-17.479-19.829-16.462c14.648-63.617-8.711-99.119-8.711-99.119s14.401,9.695,15.999,17.288
		c6.721,5.469,17.603,0.31,7.042-11.22c-40.644-58.186-115.202-54.603-115.202-54.603s17.278-26.721-9.136-48.836
		c20.653-2.16,48.174,7.701,52.973,9.068c4.801,1.365,5.534-4.487-0.353-9.185C342.449,183.013,302.367,182.559,302.367,182.559z"/>
	<g>
		<path fill="#010101" d="M404.452,285.503c0,0-24.52-33.145-71.685-38.083c-3.769-0.416-7.587-0.44-11.43-0.169
			c0.611,0.047,1.222,0.102,1.83,0.169c47.163,4.938,69.739,37.724,69.739,37.724s27.132,39.105,13.359,99.863
			c2.966,0.925,5.91,2.046,8.817,3.408C430.691,325.704,404.452,285.503,404.452,285.503z"/>
	</g>
	<g>
		<path fill="#3955A5" d="M301.302,411.778c-0.018,0.013-0.032,0.023-0.049,0.036C301.27,411.802,301.284,411.791,301.302,411.778z"
			/>
		<path fill="#3955A5" d="M301.597,411.554c-0.019,0.014-0.035,0.026-0.054,0.039C301.56,411.58,301.578,411.567,301.597,411.554z"
			/>
		<path fill="#3955A5" d="M301.07,411.954c-0.019,0.017-0.033,0.025-0.05,0.04C301.037,411.98,301.052,411.97,301.07,411.954z"/>
		<path fill="#3955A5" d="M301.95,411.288c-0.019,0.012-0.035,0.025-0.054,0.04C301.913,411.314,301.932,411.3,301.95,411.288z"/>
		<path fill="#3955A5" d="M300.907,412.083c-0.022,0.017-0.034,0.024-0.051,0.039C300.872,412.109,300.887,412.098,300.907,412.083z
			"/>
		<path fill="#3955A5" d="M392.451,275.944c0,0-12.519-23.586-59.685-28.524c-41.281-4.554-88.002,37.495-113.602,5.634
			c-24.301-33.856,30.331-58.861,30.331-58.861s-29.633-0.078-38.571-9.58c-42.904,45.308-66.275,28.546-68.244,27.607
			c19.317,49.35-40.64,60.992-55.682,48.854c2.582-4.212-31.491,39.275-16.348,113.152c-1.894-9.28-3.008-18.076-3.526-26.369
			c39.613-19.229,86.324-30.342,136.359-30.342c74.974,0,142.504,24.94,189.834,64.794c5.09,0.643,10.205,1.761,15.298,3.463
			C424.224,323.063,392.451,275.944,392.451,275.944z"/>
		<path fill="#3955A5" d="M71.869,379.803c0.089,0.381,0.184,0.765,0.275,1.146C72.053,380.567,71.958,380.184,71.869,379.803z"/>
		<path fill="#3955A5" d="M302.341,410.996c-0.007,0.005-0.013,0.01-0.019,0.013C302.328,411.006,302.334,411.001,302.341,410.996z"
			/>
		<path fill="#3955A5" d="M72.718,383.282c0.09,0.358,0.18,0.714,0.272,1.071C72.897,383.996,72.807,383.64,72.718,383.282z"/>
		<path fill="#3955A5" d="M70.812,375.007c0.141,0.673,0.281,1.344,0.43,2.022C71.093,376.352,70.952,375.679,70.812,375.007z"/>
	</g>
	<g>
		<path fill="#FFFFFF" d="M491.495,187.944c0-13.352-175.686-3.565-175.686-3.565s26.641-1.366,41.886,7.429
			c5.888,4.698,5.154,10.55,0.353,9.185c-4.799-1.367-20.798-11.228-41.453-9.068c26.414,22.116,5.294,48.836,5.294,48.836
			s63.521-5.176,107.524,54.603c10.561,11.53-2.961,14.792-7.042,11.22c-1.598-7.593-17.919-20.93-17.919-20.93
			s25.279,39.144,10.631,102.761c29.369,1.472,49.544,17.096,49.544,17.096s46.388-60.382,2.541-202.821
			C464.612,188.552,490.349,198.566,491.495,187.944z"/>
		<path fill="#FFFFFF" d="M181.901,232.245c10.951,0,21.425,1.815,31.116,5.21c-0.385-5.037,0.78-9.763,2.911-14.105
			c-9.398-2.71-19.371-4.152-29.723-4.152c-13.688,0-27.179,3.33-39.79,9.215c0.244,4.831-0.427,9.149-1.805,12.978
			C156.355,235.553,169.032,232.245,181.901,232.245z"/>
		<path fill="#FFFFFF" d="M219.165,253.054c-0.382-0.533-0.746-1.064-1.089-1.595c-9.301,6.892-4.133,20.148-2.431,22.819
			c15.68,20.933,22.88,29.582,19.201,53.861c-2.238,6.299-16.479,59.475-16.479,59.475s-33.844-78.291-41.762-112.123
			c2.882-0.146,13.559,0.376,17.279-4.249c3.72-4.625-0.96-6.218-3.839-6.218c-2.878,0-48.493,4.853-53.602,4.853
			c-5.109,0-8.322,8.347-0.96,8.347c6.079,0.261,10.242-0.608,10.242-0.608s8.317,41.948,10.72,46.731
			c-5.522,4.547-12.16,69.64-12.16,69.64s-26.004-50.073-33.442-109.698c1.442-2.729,13.121-5.462,13.121-5.462l-2.239-7.283
			l-17.106,4.582c2.917-4.109,6.093-8.014,9.491-11.677c-4.407,0.888-8.783,1.206-12.79,0.994
			C85.635,286.099,75.8,311.769,75.8,338.452c0,62.341,44.304,106.507,101.125,106.507c14.853,0,29.56-4.001,43.201-10.981
			c-8.284-19.433-13.335-41.612,13.771-54.662c8.149-22.762,21.71-69.554,24.151-77.879c1.262-4.304,2.74-14.841,1.65-25.487
			c8.112,13.953,12.772,30.693,12.772,49.419c0,18.599-5.532,36.758-14.78,52.674c4.874,1.447,9.564,3.747,13.941,6.482
			c10.617-18.11,16.977-38.824,16.977-60.032c0-24.814-7.239-46.541-19.516-63.724C249.449,266.514,231.752,268.72,219.165,253.054z
			 M84.258,337.715c0-13.663,2.918-27.031,8.061-39.411c-0.013,0.802-1.037,73.173,45.867,126.495
			C106.15,411.144,84.258,378.925,84.258,337.715z M173.693,431.914c-6.601,0-13.007-0.692-19.163-1.989
			c0.077-14.314,0.834-85.313,8.306-92.595c-0.988,2.829,29.477,72.417,44.126,87.231
			C196.32,429.266,185.056,431.914,173.693,431.914z"/>
	</g>
	<path fill="#010101" d="M242.276,80.484c0,0,40.766-12.61,48.621,18.628c7.668,46.163,44.353,36.868,51.691,33.478
		c23.794-12.554-6.981-27.64,0.568-43.608c-16.756,7.742-4.102,22.464-9.01,25.327c-9.215,5.377-18.594-10.894-21.486-14.999
		c-10.448-18.045,16.149-51.022-8.384-80.489c-42.521-44.706-81.003,0.708-80.604,22.037
		C224.074,62.188,242.276,80.484,242.276,80.484z"/>
	<path fill="#010101" d="M503.554,137.249c3.31,5.436,2.344,11.839-2.157,14.302c-4.5,2.463-10.828,0.051-14.136-5.385
		c-3.309-5.436-2.344-11.838,2.156-14.301C493.917,129.402,500.245,131.814,503.554,137.249z"/>
	<ellipse fill="#010101" cx="492.442" cy="143.436" rx="8.074" ry="7.656"/>
	<path fill="#FCD036" d="M539.544,159.244c2.057,10.167,4.021,32.386-16.381,37.875c-25.71,0.319-30.216-21.845-31.668-27.309
		c-3.297-11.727,4.304-23.083,4.914-23.779c3.832-4.566-3.789-9.037-6.984-5.09c-6.314,3.25-27.693,63.3,36.242,68.419
		c37.18-15.823,27.093-46.769,22.314-57.299C545.636,154.356,542.832,156.805,539.544,159.244z"/>
	<path fill="#FFFFFF" d="M495.946,182.023l-9.591,7.868c2.12,3.463,4.953,6.686,8.676,9.482l9.302-7.629
		C500.509,188.975,497.834,185.469,495.946,182.023z"/>
	<g>
		<path fill="#010101" d="M522.435,197.983c14.068-2.711,22.599-18.311,19.056-34.844c-0.318-1.485-0.761-2.948-1.303-4.379
			c-0.803,0.607-1.639,1.214-2.503,1.821c0.301,0.975,0.569,1.975,0.788,3.005c3.222,15.027-3.835,27.885-16.622,30.349
			c-12.786,2.464-25.064-6.399-28.286-21.425c-2.07-9.663,0.113-18.697,5.333-24.574c-0.024-0.074-0.038-0.118-0.038-0.118
			l-2.451-1.788c-5.588,6.685-8.067,16.623-5.861,26.926C494.166,189.833,510.153,200.35,522.435,197.983z"/>
		<path fill="#010101" d="M554.518,160.119c-0.761-3.554-2.907-7.085-4.312-10.253c-0.806,0.822-2.775,2.741-3.702,3.603
			c1.077,2.597,1.951,5.338,2.565,8.209c4.598,21.452-6.472,41.694-24.723,45.212c-18.254,3.518-36.776-11.021-41.377-32.473
			c-2.708-12.637,0.024-24.85,6.455-33.477l-3.846-1.52c-6.811,9.459-10.932,23.037-8.004,36.696
			c5.06,23.601,27.595,40.62,47.677,36.75C545.334,208.997,559.577,183.721,554.518,160.119z"/>
	</g>
	<g>
		<ellipse fill="#010101" cx="285.406" cy="129.683" rx="12.801" ry="12.138"/>
		<ellipse fill="#010101" cx="168.283" cy="155.171" rx="10.56" ry="10.014"/>
		<path fill="#010101" d="M232.682,152.098c-1.563-5.848-10.819-8.67-20.667-6.302c-9.852,2.368-16.57,9.031-15.007,14.879
			c1.564,5.846,10.82,8.669,20.67,6.301C227.527,164.607,234.246,157.945,232.682,152.098z"/>
		<path fill="#010101" d="M182.204,165.185c-45.065,11.453,3.477,61.888-22.769,79.505c43.666-2.861,0.233-56.6,37.347-66.952
			C201.011,175.316,200.327,160.781,182.204,165.185z"/>
		<path fill="#010101" d="M247.821,159.256c-15.029-1.719-21.088,13.441-16.224,15.662c44.308,2.961,17.028,62.01,60.412,60.262
			C264.651,223.383,295.593,164.721,247.821,159.256z"/>
	</g>
	<g>
		<path fill="#AF2924" d="M24.916,393.072c-12.015,7.896-10.24,30.347,17.602,62.512c41.6,50.371,63.042,40.663,64.962,38.539
			c1.92-2.123,18.88-14.869-14.721-61.298C55.317,380.936,39.141,384.581,24.916,393.072z"/>
		<path fill="#AF2924" d="M271.006,399.145c-35.206-25.286-46.402,3.336-44.482,17.599c0,11.529,12.801,25.49,15.681,47.338
			c2.881,21.85-3.519,39.449,0.321,50.375c0.639,6.977,16.642,38.839,46.722,5.157C294.368,513.849,331.81,449.215,271.006,399.145z
			"/>
		<path fill="#AF2924" d="M335.585,403.159c-16.244,9.805-26.497,21.549-26.497,21.549s22.081,38.916-2.562,95.813
			c22.959-0.514,43.355-4.603,61.354-11.588C380.978,431.91,350.599,409.455,335.585,403.159z"/>
		<path fill="#AF2924" d="M428.708,355.692l-8.724-1.703c-0.24,6.689-0.872,12.771-1.607,17.9l6.18,1.206l-4.114,16.299
			c4.33,0.877,10.885,2.383,18.165,4.672l4.264-16.892l-17.944-4.073L428.708,355.692z"/>
		<path fill="#AF2924" d="M460.33,384.16l7.185-16.448l-17.383-6.825l-7.198,16.482l17.288,6.79l-8.999,14.505
			c4.624,1.95,9.205,4.222,13.403,6.848c3.032-4.603,5.623-9.54,7.841-14.578L460.33,384.16z"/>
		<polygon fill="#AF2924" points="349.147,202.502 333.736,201.571 332.756,216.184 348.165,217.114 		"/>
		<path fill="#AF2924" d="M331.442,231.65l0.982-14.611l-2.511-0.152c0.314,4.365-0.75,9.367-2.906,14.496L331.442,231.65z"/>
		<path fill="#AF2924" d="M333.533,201.919l0.614-9.157c-6.959-1.268-12.524-1.207-15.404-1.031l-0.134,2.001
			c2.487,2.437,4.644,5.008,6.384,7.67L333.533,201.919z"/>
		<path fill="#AF2924" d="M347.057,232.896l-15.411-0.932l-0.592,8.821c4.072,0.215,9.311,0.726,15.348,1.839L347.057,232.896z"/>
	</g>
</g>
</svg>
